<svg width="536" height="267" viewBox="0 0 536 267" fill="none" xmlns="http://www.w3.org/2000/svg">
    <rect x="-250.582" y="-16.1257" width="36.4589" height="535.687" transform="rotate(-32.4916 -250.582 -16.1257)" fill="#F7F7F7"/>
    <rect x="-171.236" y="-16.1257" width="36.4589" height="535.687" transform="rotate(-32.4916 -171.236 -16.1257)" fill="#F7F7F7"/>
    <rect x="-91.8894" y="-16.1257" width="36.4589" height="535.687" transform="rotate(-32.4916 -91.8894 -16.1257)" fill="#F7F7F7"/>
    <rect x="-12.5432" y="-16.1257" width="36.4589" height="535.687" transform="rotate(-32.4916 -12.5432 -16.1257)" fill="#F7F7F7"/>
    <rect x="66.8027" y="-16.1257" width="36.4589" height="535.687" transform="rotate(-32.4916 66.8027 -16.1257)" fill="#F7F7F7"/>
    <rect x="146.149" y="-16.1257" width="36.4589" height="535.687" transform="rotate(-32.4916 146.149 -16.1257)" fill="#F7F7F7"/>
    <rect x="225.495" y="-16.1257" width="36.4589" height="535.687" transform="rotate(-32.4916 225.495 -16.1257)" fill="#F7F7F7"/>
    <rect x="305.072" y="-16.1257" width="36.4589" height="535.687" transform="rotate(-32.4916 305.072 -16.1257)" fill="#F7F7F7"/>
    <rect x="384.418" y="-16.1257" width="36.4589" height="535.687" transform="rotate(-32.4916 384.418 -16.1257)" fill="#F7F7F7"/>
    <rect x="465.072" y="-16.1257" width="36.4589" height="535.687" transform="rotate(-32.4916 465.072 -16.1257)" fill="#F7F7F7"/>
    </svg>
    