<svg width="13" height="14" viewBox="0 0 13 14" fill="none" xmlns="http://www.w3.org/2000/svg">
    <path fill-rule="evenodd" clip-rule="evenodd" d="M11.9166 6.99998C11.9166 9.99152 9.49146 12.4166 6.49992 12.4166C3.50838 12.4166 1.08325 9.99152 1.08325 6.99998C1.08325 4.00844 3.50838 1.58331 6.49992 1.58331C9.49146 1.58331 11.9166 4.00844 11.9166 6.99998ZM8.68301 5.35855C8.84166 5.5172 8.84166 5.77442 8.68301 5.93307L5.97468 8.64141C5.81603 8.80006 5.55881 8.80006 5.40016 8.64141L4.31682 7.55807C4.15817 7.39942 4.15817 7.1422 4.31682 6.98355C4.47547 6.8249 4.7327 6.8249 4.89135 6.98355L5.68742 7.77962L6.89795 6.56909L8.10849 5.35855C8.26714 5.1999 8.52436 5.1999 8.68301 5.35855Z" fill="#32B587"/>
    </svg>
    