<svg width="13" height="14" viewBox="0 0 13 14" fill="none" xmlns="http://www.w3.org/2000/svg">
    <path d="M3.79167 6.99994C3.79167 7.59825 3.30664 8.08328 2.70833 8.08328C2.11002 8.08328 1.625 7.59825 1.625 6.99994C1.625 6.40163 2.11002 5.91661 2.70833 5.91661C3.30664 5.91661 3.79167 6.40163 3.79167 6.99994Z" fill="black"/>
    <path d="M7.44792 5.37496C7.44792 5.97327 6.96289 6.45829 6.36458 6.45829C5.76627 6.45829 5.28125 5.97327 5.28125 5.37496C5.28125 4.77665 5.76627 4.29163 6.36458 4.29163C6.96289 4.29163 7.44792 4.77665 7.44792 5.37496Z" fill="black"/>
    <path d="M11.375 7.81249C11.375 8.4108 10.89 8.89583 10.2917 8.89583C9.69336 8.89583 9.20833 8.4108 9.20833 7.81249C9.20833 7.21418 9.69336 6.72916 10.2917 6.72916C10.89 6.72916 11.375 7.21418 11.375 7.81249Z" fill="black"/>
    </svg>
    